<svg xmlns="http://www.w3.org/2000/svg" viewBox="0 0 900 560" role="img" aria-labelledby="title desc">
  <title id="title">Face Recognition Attendance visual</title>
  <desc id="desc">Computer vision face scan with attendance dashboard.</desc>
  <defs>
    <linearGradient id="g" x1="128" y1="80" x2="760" y2="500" gradientUnits="userSpaceOnUse"><stop stop-color="#7C3AED"/><stop offset="1" stop-color="#06B6D4"/></linearGradient>
    <radialGradient id="r" cx="45%" cy="42%" r="70%"><stop stop-color="#101827"/><stop offset="1" stop-color="#05070C"/></radialGradient>
    <filter id="glow" x="-35%" y="-35%" width="170%" height="170%"><feGaussianBlur stdDeviation="9" result="b"/><feMerge><feMergeNode in="b"/><feMergeNode in="SourceGraphic"/></feMerge></filter>
  </defs>
  <rect width="900" height="560" rx="34" fill="url(#r)"/>
  <g transform="translate(110 84)">
    <rect width="680" height="390" rx="34" fill="#0B1020" stroke="#fff" stroke-opacity=".1"/>
    <rect x="38" y="38" width="320" height="314" rx="28" fill="#05070C" stroke="url(#g)" stroke-width="3"/>
    <g transform="translate(118 78)" filter="url(#glow)">
      <circle cx="80" cy="80" r="64" fill="#111827" stroke="#67E8F9" stroke-width="5"/>
      <circle cx="58" cy="72" r="8" fill="#67E8F9"/>
      <circle cx="102" cy="72" r="8" fill="#A78BFA"/>
      <path d="M58 108c16 14 44 14 60 0" fill="none" stroke="#fff" stroke-width="7" stroke-linecap="round"/>
      <path d="M-18 18V-4h38M180-4h38v38M218 182v38h-38M20 220h-38v-38" fill="none" stroke="#06B6D4" stroke-width="8" stroke-linecap="round"/>
    </g>
    <path d="M78 312h242" stroke="#06B6D4" stroke-width="8" stroke-linecap="round" stroke-dasharray="18 18"/>
    <g transform="translate(410 60)">
      <text x="0" y="0" fill="#E5E7EB" font-family="Inter, Arial" font-size="24" font-weight="700">Attendance Log</text>
      <g transform="translate(0 40)">
        <rect width="206" height="48" rx="16" fill="#111827" stroke="#fff" stroke-opacity=".1"/>
        <circle cx="28" cy="24" r="10" fill="#22C55E"/>
        <path d="M56 24h112" stroke="#fff" stroke-opacity=".62" stroke-width="8" stroke-linecap="round"/>
      </g>
      <g transform="translate(0 106)">
        <rect width="206" height="48" rx="16" fill="#111827" stroke="#fff" stroke-opacity=".1"/>
        <circle cx="28" cy="24" r="10" fill="#22C55E"/>
        <path d="M56 24h92" stroke="#fff" stroke-opacity=".62" stroke-width="8" stroke-linecap="round"/>
      </g>
      <g transform="translate(0 172)">
        <rect width="206" height="48" rx="16" fill="#111827" stroke="#fff" stroke-opacity=".1"/>
        <circle cx="28" cy="24" r="10" fill="#F59E0B"/>
        <path d="M56 24h122" stroke="#fff" stroke-opacity=".62" stroke-width="8" stroke-linecap="round"/>
      </g>
    </g>
  </g>
  <text x="54" y="512" fill="#E5E7EB" font-family="Inter, Arial" font-size="24" font-weight="700">Computer Vision Attendance</text>
</svg>
